<svg  viewBox="0 0 98 99" fill="none" xmlns="http://www.w3.org/2000/svg">
<path d="M41.9279 14.791L8.92225 71.9576C8.20549 73.1991 7.82815 74.6075 7.82812 76.0409C7.82812 77.4744 8.20547 78.8827 8.92221 80.1243C9.63896 81.3658 10.6699 82.3966 11.9113 83.1135C13.1528 83.8303 14.5611 84.2076 15.9946 84.2076H82.0058C83.4393 84.2076 84.8476 83.8303 86.0889 83.1135C87.3305 82.3966 88.3613 81.3658 89.0781 80.1243C89.795 78.8827 90.1723 77.4744 90.1723 76.0409C90.1723 74.6075 89.795 73.1991 89.0781 71.9576L56.0725 14.791C55.3557 13.5496 54.3249 12.5187 53.0833 11.802C51.8418 11.0853 50.4337 10.708 49.0002 10.708C47.5668 10.708 46.1584 11.0853 44.9171 11.802C43.6755 12.5187 42.6447 13.5496 41.9279 14.791Z" fill="#FAC100"/>
<path d="M71.4585 76.0415C61.5168 76.0423 51.7746 73.2513 43.3417 67.9865C34.9086 62.7214 28.1234 55.194 23.7591 46.2617L8.92225 71.9581C8.20549 73.1995 7.82815 74.6078 7.82812 76.0413C7.82812 77.4749 8.20547 78.8831 8.92221 80.1246C9.63896 81.3661 10.6699 82.397 11.9113 83.1138C13.1528 83.8306 14.5611 84.2079 15.9946 84.2081H82.0058C83.3517 84.2073 84.6765 83.8739 85.8623 83.2375C87.0483 82.6011 88.0585 81.6818 88.8033 80.5607C89.5481 79.4396 90.0042 78.1519 90.1312 76.8122C90.2582 75.4723 90.0522 74.1219 89.5314 72.881C83.7369 74.978 77.6207 76.0474 71.4585 76.0415Z" fill="#FF9500"/>
<path d="M47.3955 29.083H50.605C51.0535 29.082 51.4976 29.1733 51.9092 29.3513C52.321 29.5293 52.6916 29.7902 52.998 30.1177C53.3047 30.4454 53.5403 30.8325 53.6906 31.2551C53.8408 31.6778 53.9025 32.1267 53.8717 32.5743L52.2669 56.6455C52.215 57.4761 51.848 58.2554 51.241 58.8246C50.6338 59.3936 49.8324 59.7097 49.0002 59.708C48.1683 59.7097 47.3667 59.3936 46.7597 58.8246C46.1527 58.2554 45.7856 57.4761 45.7336 56.6455L44.1288 32.5743C44.098 32.1267 44.1597 31.6778 44.3099 31.2551C44.4604 30.8325 44.696 30.4454 45.0024 30.1177C45.3089 29.7902 45.6797 29.5293 46.0913 29.3513C46.5031 29.1733 46.9469 29.082 47.3955 29.083Z" fill="#2D4A60"/>
<path d="M48.9997 76.0413C51.8186 76.0413 54.1038 73.7561 54.1038 70.9372C54.1038 68.1182 51.8186 65.833 48.9997 65.833C46.1807 65.833 43.8955 68.1182 43.8955 70.9372C43.8955 73.7561 46.1807 76.0413 48.9997 76.0413Z" fill="#2D4A60"/>
<path d="M48.9997 76.0418C49.995 76.0414 50.9685 75.7499 51.8002 75.2031C52.632 74.6566 53.2859 73.8787 53.6812 72.9651C50.4772 71.8238 47.3915 70.3742 44.4672 68.6367C44.0966 69.3476 43.9008 70.1363 43.8955 70.9377C43.8955 72.2915 44.4333 73.5898 45.3904 74.5469C46.3478 75.5043 47.646 76.0418 48.9997 76.0418Z" fill="#263F52"/>
<path d="M82.0058 86.2499H15.9946C14.202 86.2514 12.4406 85.7805 10.8876 84.8853C9.33466 83.9898 8.04486 82.7013 7.14795 81.1492C6.25105 79.5969 5.77867 77.8362 5.77832 76.0434C5.77797 74.2508 6.24968 72.4899 7.14597 70.9374L40.1598 13.7707C41.0557 12.219 42.3444 10.9304 43.8963 10.0345C45.4479 9.13864 47.2083 8.66699 49.0002 8.66699C50.792 8.66699 52.5523 9.13864 54.104 10.0345C55.6559 10.9304 56.9446 12.219 57.8407 13.7707L90.8544 70.9374C91.7503 72.4893 92.2219 74.2496 92.2219 76.0414C92.2219 77.8334 91.7503 79.5937 90.8544 81.1455C89.9585 82.6974 88.6698 83.9861 87.118 84.8822C85.5661 85.7781 83.8058 86.2499 82.0138 86.2499H82.0058ZM43.6919 15.8124L10.6903 72.9791C10.1526 73.9105 9.86953 74.9671 9.86972 76.0426C9.86988 77.118 10.1532 78.1745 10.6913 79.1057C11.2293 80.0369 12.0031 80.8101 12.9348 81.3475C13.8664 81.8846 14.9231 82.1672 15.9986 82.1666H82.0058C83.0812 82.1672 84.1379 81.8846 85.0695 81.3475C86.0014 80.8101 86.7749 80.0369 87.3131 79.1057C87.8511 78.1745 88.1345 77.118 88.1347 76.0426C88.1349 74.9671 87.8517 73.9105 87.3139 72.9791L54.3086 15.8124C53.7714 14.8794 52.998 14.1045 52.066 13.5656C51.1342 13.0268 50.0766 12.7431 49.0002 12.7431C47.9237 12.7431 46.8661 13.0268 45.9343 13.5656C45.0022 14.1045 44.2289 14.8794 43.6919 15.8124Z" fill="black"/>
<path d="M48.9996 61.7503C47.6511 61.7489 46.3534 61.236 45.3683 60.3153C44.383 59.3945 43.7838 58.1343 43.6913 56.7891L42.0845 32.7097C42.0351 31.9828 42.1359 31.2536 42.3807 30.5674C42.6255 29.8809 43.0087 29.2525 43.5069 28.7209C44.0051 28.1892 44.6074 27.7658 45.2762 27.4769C45.9451 27.1882 46.6662 27.0402 47.3949 27.042H50.6044C51.3328 27.0404 52.0537 27.1886 52.7224 27.4775C53.391 27.7666 53.9929 28.19 54.4909 28.7217C54.9888 29.2533 55.3721 29.8818 55.6166 30.5678C55.8612 31.254 55.9619 31.983 55.9127 32.7097L54.3079 56.7891C54.2154 58.1343 53.6162 59.3945 52.6309 60.3153C51.6458 61.236 50.3481 61.7489 48.9996 61.7503ZM47.3949 31.1253C47.2262 31.1249 47.0592 31.1592 46.9044 31.2264C46.7495 31.2936 46.6102 31.3918 46.4953 31.5153C46.3804 31.6388 46.2919 31.7846 46.236 31.9438C46.1801 32.1029 46.1574 32.2719 46.1699 32.4402L47.7746 56.5175C47.7746 56.8424 47.9036 57.1541 48.1333 57.3838C48.3632 57.6135 48.6748 57.7425 48.9996 57.7425C49.3244 57.7425 49.636 57.6135 49.8659 57.3838C50.0956 57.1541 50.2246 56.8424 50.2246 56.5175L51.8314 32.4402C51.8438 32.2719 51.8212 32.1029 51.7652 31.9438C51.7093 31.7846 51.6209 31.6388 51.506 31.5153C51.391 31.3918 51.2518 31.2936 51.0968 31.2264C50.942 31.1592 50.775 31.1249 50.6064 31.1253H47.3949Z" fill="black"/>
<path d="M49.0003 78.0836C47.5871 78.0836 46.2055 77.6645 45.0303 76.8793C43.8551 76.0942 42.9392 74.9781 42.3984 73.6724C41.8575 72.3668 41.7161 70.9298 41.9919 69.5438C42.2675 68.1577 42.948 66.8843 43.9474 65.8849C44.9468 64.8855 46.2202 64.205 47.6063 63.9294C48.9923 63.6536 50.4293 63.795 51.7349 64.3359C53.0406 64.8767 54.1567 65.7926 54.9418 66.9678C55.727 68.143 56.1461 69.5246 56.1461 70.9378C56.1461 72.8331 55.3934 74.6506 54.0532 75.9907C52.7131 77.3309 50.8956 78.0836 49.0003 78.0836ZM49.0003 67.8753C48.3945 67.8753 47.8025 68.055 47.2988 68.3914C46.7953 68.7279 46.4027 69.2063 46.171 69.7659C45.9392 70.3255 45.8784 70.9413 45.9966 71.5352C46.1148 72.1293 46.4066 72.6751 46.8347 73.1034C47.2631 73.5315 47.8088 73.8233 48.4029 73.9415C48.9968 74.0597 49.6126 73.9991 50.1722 73.7671C50.7318 73.5354 51.2102 73.1428 51.5467 72.6393C51.8831 72.1357 52.0628 71.5436 52.0628 70.9378C52.0628 70.1256 51.7402 69.3465 51.1659 68.7722C50.5916 68.1979 49.8125 67.8753 49.0003 67.8753Z" fill="black"/>
</svg>
